<svg xmlns="http://www.w3.org/2000/svg" viewBox="240 220 480 540">
  <g transform="translate(0,960) scale(0.1,-0.1)" fill="white" stroke="none">
    <path d="M6982 6908 c2 -156 2 -388 0 -515 l-4 -233 -1644 0 -1644 0 0 -460 0
-460 1216 0 1217 0 66 -57 c170 -148 510 -454 645 -579 l148 -139 -1 -701 -2
-701 -182 -179 c-100 -98 -290 -286 -423 -416 l-240 -238 -1757 0 -1757 0 0
520 0 520 1650 0 1650 0 -2 458 -3 457 -1220 3 -1221 2 -244 221 c-135 121
-327 293 -427 382 l-182 162 0 696 -1 697 426 421 426 421 1753 0 1753 0 4
-282z"/>
  </g>
</svg>
